<svg width="93" height="60" viewBox="0 0 93 60" fill="none" xmlns="http://www.w3.org/2000/svg">
<path opacity="0.1" d="M0.6 30C0.6 20.8267 2.36 13.6 5.88 8.32C9.45333 3.04 15.1867 0.399995 23.08 0.399995C30.9733 0.399995 36.68 3.04 40.2 8.32C43.7733 13.6 45.56 20.8267 45.56 30C45.56 39.28 43.7733 46.56 40.2 51.84C36.68 57.12 30.9733 59.76 23.08 59.76C15.1867 59.76 9.45333 57.12 5.88 51.84C2.36 46.56 0.6 39.28 0.6 30ZM32.12 30C32.12 24.6133 31.5333 20.48 30.36 17.6C29.1867 14.6667 26.76 13.2 23.08 13.2C19.4 13.2 16.9733 14.6667 15.8 17.6C14.6267 20.48 14.04 24.6133 14.04 30C14.04 33.6267 14.2533 36.64 14.68 39.04C15.1067 41.3867 15.96 43.3067 17.24 44.8C18.5733 46.24 20.52 46.96 23.08 46.96C25.64 46.96 27.56 46.24 28.84 44.8C30.1733 43.3067 31.0533 41.3867 31.48 39.04C31.9067 36.64 32.12 33.6267 32.12 30ZM52.3075 49.04C54.1208 47.6 54.9475 46.9333 54.7875 47.04C60.0142 42.72 64.1208 39.1733 67.1075 36.4C70.1475 33.6267 72.7075 30.72 74.7875 27.68C76.8675 24.64 77.9075 21.68 77.9075 18.8C77.9075 16.6133 77.4008 14.9067 76.3875 13.68C75.3742 12.4533 73.8542 11.84 71.8275 11.84C69.8008 11.84 68.2008 12.6133 67.0275 14.16C65.9075 15.6533 65.3475 17.7867 65.3475 20.56H52.1475C52.2542 16.0267 53.2142 12.24 55.0275 9.2C56.8942 6.16 59.3208 3.92 62.3075 2.48C65.3475 1.04 68.7075 0.319996 72.3875 0.319996C78.7342 0.319996 83.5075 1.94666 86.7075 5.2C89.9608 8.45333 91.5875 12.6933 91.5875 17.92C91.5875 23.6267 89.6408 28.9333 85.7475 33.84C81.8542 38.6933 76.8942 43.44 70.8675 48.08H92.4675V59.2H52.3075V49.04Z" fill="white"/>
</svg>
