<svg width="74" height="60" viewBox="0 0 74 60" fill="none" xmlns="http://www.w3.org/2000/svg">
<path opacity="0.1" d="M0.6 30C0.6 20.8267 2.36 13.6 5.88 8.32C9.45333 3.04 15.1867 0.399995 23.08 0.399995C30.9733 0.399995 36.68 3.04 40.2 8.32C43.7733 13.6 45.56 20.8267 45.56 30C45.56 39.28 43.7733 46.56 40.2 51.84C36.68 57.12 30.9733 59.76 23.08 59.76C15.1867 59.76 9.45333 57.12 5.88 51.84C2.36 46.56 0.6 39.28 0.6 30ZM32.12 30C32.12 24.6133 31.5333 20.48 30.36 17.6C29.1867 14.6667 26.76 13.2 23.08 13.2C19.4 13.2 16.9733 14.6667 15.8 17.6C14.6267 20.48 14.04 24.6133 14.04 30C14.04 33.6267 14.2533 36.64 14.68 39.04C15.1067 41.3867 15.96 43.3067 17.24 44.8C18.5733 46.24 20.52 46.96 23.08 46.96C25.64 46.96 27.56 46.24 28.84 44.8C30.1733 43.3067 31.0533 41.3867 31.48 39.04C31.9067 36.64 32.12 33.6267 32.12 30ZM51.3475 14.32V1.6H73.5075V60H59.2675V14.32H51.3475Z" fill="white"/>
</svg>
