<svg width="94" height="61" viewBox="0 0 94 61" fill="none" xmlns="http://www.w3.org/2000/svg">
<path opacity="0.1" d="M0.6 30C0.6 20.8267 2.36 13.6 5.88 8.32C9.45333 3.04 15.1867 0.399995 23.08 0.399995C30.9733 0.399995 36.68 3.04 40.2 8.32C43.7733 13.6 45.56 20.8267 45.56 30C45.56 39.28 43.7733 46.56 40.2 51.84C36.68 57.12 30.9733 59.76 23.08 59.76C15.1867 59.76 9.45333 57.12 5.88 51.84C2.36 46.56 0.6 39.28 0.6 30ZM32.12 30C32.12 24.6133 31.5333 20.48 30.36 17.6C29.1867 14.6667 26.76 13.2 23.08 13.2C19.4 13.2 16.9733 14.6667 15.8 17.6C14.6267 20.48 14.04 24.6133 14.04 30C14.04 33.6267 14.2533 36.64 14.68 39.04C15.1067 41.3867 15.96 43.3067 17.24 44.8C18.5733 46.24 20.52 46.96 23.08 46.96C25.64 46.96 27.56 46.24 28.84 44.8C30.1733 43.3067 31.0533 41.3867 31.48 39.04C31.9067 36.64 32.12 33.6267 32.12 30ZM53.2675 18.08C53.4808 12.3733 55.3475 7.97333 58.8675 4.88C62.3875 1.78666 67.1608 0.239997 73.1875 0.239997C77.1875 0.239997 80.6008 0.933331 83.4275 2.32C86.3075 3.70666 88.4675 5.6 89.9075 8C91.4008 10.4 92.1475 13.0933 92.1475 16.08C92.1475 19.6 91.2675 22.48 89.5075 24.72C87.7475 26.9067 85.6942 28.4 83.3475 29.2V29.52C86.3875 30.5333 88.7875 32.2133 90.5475 34.56C92.3075 36.9067 93.1875 39.92 93.1875 43.6C93.1875 46.9067 92.4142 49.84 90.8675 52.4C89.3742 54.9067 87.1608 56.88 84.2275 58.32C81.3475 59.76 77.9075 60.48 73.9075 60.48C67.5075 60.48 62.3875 58.9067 58.5475 55.76C54.7608 52.6133 52.7608 47.8667 52.5475 41.52H65.8275C65.8808 43.8667 66.5475 45.7333 67.8275 47.12C69.1075 48.4533 70.9742 49.12 73.4275 49.12C75.5075 49.12 77.1075 48.5333 78.2275 47.36C79.4008 46.1333 79.9875 44.5333 79.9875 42.56C79.9875 40 79.1608 38.16 77.5075 37.04C75.9075 35.8667 73.3208 35.28 69.7475 35.28H67.1875V24.16H69.7475C72.4675 24.16 74.6542 23.7067 76.3075 22.8C78.0142 21.84 78.8675 20.16 78.8675 17.76C78.8675 15.84 78.3342 14.3467 77.2675 13.28C76.2008 12.2133 74.7342 11.68 72.8675 11.68C70.8408 11.68 69.3208 12.2933 68.3075 13.52C67.3475 14.7467 66.7875 16.2667 66.6275 18.08H53.2675Z" fill="white"/>
</svg>
