<svg width="258" height="444" viewBox="0 0 258 444" fill="none" xmlns="http://www.w3.org/2000/svg">
<g filter="url(#filter0_d)">
<rect opacity="0.5" x="175" y="100" width="3" height="240" fill="#0B1D26"/>
<rect x="175" y="100" width="3" height="60" fill="#0B1D26"/>
<path d="M104.78 123.364V136H101.702V123.364H104.78ZM113.131 125.848C114.307 125.848 115.243 126.232 115.939 127C116.647 127.756 117.001 128.8 117.001 130.132V136H113.941V130.546C113.941 129.874 113.767 129.352 113.419 128.98C113.071 128.608 112.603 128.422 112.015 128.422C111.427 128.422 110.959 128.608 110.611 128.98C110.263 129.352 110.089 129.874 110.089 130.546V136H107.011V125.956H110.089V127.288C110.401 126.844 110.821 126.496 111.349 126.244C111.877 125.98 112.471 125.848 113.131 125.848ZM120.687 124.912C120.147 124.912 119.703 124.756 119.355 124.444C119.019 124.12 118.851 123.724 118.851 123.256C118.851 122.776 119.019 122.38 119.355 122.068C119.703 121.744 120.147 121.582 120.687 121.582C121.215 121.582 121.647 121.744 121.983 122.068C122.331 122.38 122.505 122.776 122.505 123.256C122.505 123.724 122.331 124.12 121.983 124.444C121.647 124.756 121.215 124.912 120.687 124.912ZM122.217 125.956V136H119.139V125.956H122.217ZM123.836 130.978C123.836 129.934 124.046 129.022 124.466 128.242C124.898 127.462 125.492 126.862 126.248 126.442C127.016 126.022 127.892 125.812 128.876 125.812C130.136 125.812 131.186 126.142 132.026 126.802C132.878 127.462 133.436 128.392 133.7 129.592H130.424C130.148 128.824 129.614 128.44 128.822 128.44C128.258 128.44 127.808 128.662 127.472 129.106C127.136 129.538 126.968 130.162 126.968 130.978C126.968 131.794 127.136 132.424 127.472 132.868C127.808 133.3 128.258 133.516 128.822 133.516C129.614 133.516 130.148 133.132 130.424 132.364H133.7C133.436 133.54 132.878 134.464 132.026 135.136C131.174 135.808 130.124 136.144 128.876 136.144C127.892 136.144 127.016 135.934 126.248 135.514C125.492 135.094 124.898 134.494 124.466 133.714C124.046 132.934 123.836 132.022 123.836 130.978ZM136.894 124.912C136.354 124.912 135.91 124.756 135.562 124.444C135.226 124.12 135.058 123.724 135.058 123.256C135.058 122.776 135.226 122.38 135.562 122.068C135.91 121.744 136.354 121.582 136.894 121.582C137.422 121.582 137.854 121.744 138.19 122.068C138.538 122.38 138.712 122.776 138.712 123.256C138.712 123.724 138.538 124.12 138.19 124.444C137.854 124.756 137.422 124.912 136.894 124.912ZM138.424 125.956V136H135.346V125.956H138.424ZM145.227 136.144C144.243 136.144 143.355 135.934 142.563 135.514C141.783 135.094 141.165 134.494 140.709 133.714C140.265 132.934 140.043 132.022 140.043 130.978C140.043 129.946 140.271 129.04 140.727 128.26C141.183 127.468 141.807 126.862 142.599 126.442C143.391 126.022 144.279 125.812 145.263 125.812C146.247 125.812 147.135 126.022 147.927 126.442C148.719 126.862 149.343 127.468 149.799 128.26C150.255 129.04 150.483 129.946 150.483 130.978C150.483 132.01 150.249 132.922 149.781 133.714C149.325 134.494 148.695 135.094 147.891 135.514C147.099 135.934 146.211 136.144 145.227 136.144ZM145.227 133.48C145.815 133.48 146.313 133.264 146.721 132.832C147.141 132.4 147.351 131.782 147.351 130.978C147.351 130.174 147.147 129.556 146.739 129.124C146.343 128.692 145.851 128.476 145.263 128.476C144.663 128.476 144.165 128.692 143.769 129.124C143.373 129.544 143.175 130.162 143.175 130.978C143.175 131.782 143.367 132.4 143.751 132.832C144.147 133.264 144.639 133.48 145.227 133.48Z" fill="#0B1D26"/>
<path d="M133.3 196.25C133.3 194.186 133.696 192.56 134.488 191.372C135.292 190.184 136.582 189.59 138.358 189.59C140.134 189.59 141.418 190.184 142.21 191.372C143.014 192.56 143.416 194.186 143.416 196.25C143.416 198.338 143.014 199.976 142.21 201.164C141.418 202.352 140.134 202.946 138.358 202.946C136.582 202.946 135.292 202.352 134.488 201.164C133.696 199.976 133.3 198.338 133.3 196.25ZM140.392 196.25C140.392 195.038 140.26 194.108 139.996 193.46C139.732 192.8 139.186 192.47 138.358 192.47C137.53 192.47 136.984 192.8 136.72 193.46C136.456 194.108 136.324 195.038 136.324 196.25C136.324 197.066 136.372 197.744 136.468 198.284C136.564 198.812 136.756 199.244 137.044 199.58C137.344 199.904 137.782 200.066 138.358 200.066C138.934 200.066 139.366 199.904 139.654 199.58C139.954 199.244 140.152 198.812 140.248 198.284C140.344 197.744 140.392 197.066 140.392 196.25ZM144.718 192.722V189.86H149.704V203H146.5V192.722H144.718Z" fill="#0B1D26"/>
<path d="M129.785 263.25C129.785 261.186 130.181 259.56 130.973 258.372C131.777 257.184 133.067 256.59 134.843 256.59C136.619 256.59 137.903 257.184 138.695 258.372C139.499 259.56 139.901 261.186 139.901 263.25C139.901 265.338 139.499 266.976 138.695 268.164C137.903 269.352 136.619 269.946 134.843 269.946C133.067 269.946 131.777 269.352 130.973 268.164C130.181 266.976 129.785 265.338 129.785 263.25ZM136.877 263.25C136.877 262.038 136.745 261.108 136.481 260.46C136.217 259.8 135.671 259.47 134.843 259.47C134.015 259.47 133.469 259.8 133.205 260.46C132.941 261.108 132.809 262.038 132.809 263.25C132.809 264.066 132.857 264.744 132.953 265.284C133.049 265.812 133.241 266.244 133.529 266.58C133.829 266.904 134.267 267.066 134.843 267.066C135.419 267.066 135.851 266.904 136.139 266.58C136.439 266.244 136.637 265.812 136.733 265.284C136.829 264.744 136.877 264.066 136.877 263.25ZM141.419 267.534C141.827 267.21 142.013 267.06 141.977 267.084C143.153 266.112 144.077 265.314 144.749 264.69C145.433 264.066 146.009 263.412 146.477 262.728C146.945 262.044 147.179 261.378 147.179 260.73C147.179 260.238 147.065 259.854 146.837 259.578C146.609 259.302 146.267 259.164 145.811 259.164C145.355 259.164 144.995 259.338 144.731 259.686C144.479 260.022 144.353 260.502 144.353 261.126H141.383C141.407 260.106 141.623 259.254 142.031 258.57C142.451 257.886 142.997 257.382 143.669 257.058C144.353 256.734 145.109 256.572 145.937 256.572C147.365 256.572 148.439 256.938 149.159 257.67C149.891 258.402 150.257 259.356 150.257 260.532C150.257 261.816 149.819 263.01 148.943 264.114C148.067 265.206 146.951 266.274 145.595 267.318H150.455V269.82H141.419V267.534Z" fill="#0B1D26"/>
<path d="M129.169 330.25C129.169 328.186 129.565 326.56 130.357 325.372C131.161 324.184 132.451 323.59 134.227 323.59C136.003 323.59 137.287 324.184 138.079 325.372C138.883 326.56 139.285 328.186 139.285 330.25C139.285 332.338 138.883 333.976 138.079 335.164C137.287 336.352 136.003 336.946 134.227 336.946C132.451 336.946 131.161 336.352 130.357 335.164C129.565 333.976 129.169 332.338 129.169 330.25ZM136.261 330.25C136.261 329.038 136.129 328.108 135.865 327.46C135.601 326.8 135.055 326.47 134.227 326.47C133.399 326.47 132.853 326.8 132.589 327.46C132.325 328.108 132.193 329.038 132.193 330.25C132.193 331.066 132.241 331.744 132.337 332.284C132.433 332.812 132.625 333.244 132.913 333.58C133.213 333.904 133.651 334.066 134.227 334.066C134.803 334.066 135.235 333.904 135.523 333.58C135.823 333.244 136.021 332.812 136.117 332.284C136.213 331.744 136.261 331.066 136.261 330.25ZM141.02 327.568C141.068 326.284 141.488 325.294 142.28 324.598C143.072 323.902 144.146 323.554 145.502 323.554C146.402 323.554 147.17 323.71 147.806 324.022C148.454 324.334 148.94 324.76 149.264 325.3C149.6 325.84 149.768 326.446 149.768 327.118C149.768 327.91 149.57 328.558 149.174 329.062C148.778 329.554 148.316 329.89 147.788 330.07V330.142C148.472 330.37 149.012 330.748 149.408 331.276C149.804 331.804 150.002 332.482 150.002 333.31C150.002 334.054 149.828 334.714 149.48 335.29C149.144 335.854 148.646 336.298 147.986 336.622C147.338 336.946 146.564 337.108 145.664 337.108C144.224 337.108 143.072 336.754 142.208 336.046C141.356 335.338 140.906 334.27 140.858 332.842H143.846C143.858 333.37 144.008 333.79 144.296 334.102C144.584 334.402 145.004 334.552 145.556 334.552C146.024 334.552 146.384 334.42 146.636 334.156C146.9 333.88 147.032 333.52 147.032 333.076C147.032 332.5 146.846 332.086 146.474 331.834C146.114 331.57 145.532 331.438 144.728 331.438H144.152V328.936H144.728C145.34 328.936 145.832 328.834 146.204 328.63C146.588 328.414 146.78 328.036 146.78 327.496C146.78 327.064 146.66 326.728 146.42 326.488C146.18 326.248 145.85 326.128 145.43 326.128C144.974 326.128 144.632 326.266 144.404 326.542C144.188 326.818 144.062 327.16 144.026 327.568H141.02Z" fill="#0B1D26"/>
</g>
<defs>
<filter id="filter0_d" x="0" y="0" width="278" height="444" filterUnits="userSpaceOnUse" color-interpolation-filters="sRGB">
<feFlood flood-opacity="0" result="BackgroundImageFix"/>
<feColorMatrix in="SourceAlpha" type="matrix" values="0 0 0 0 0 0 0 0 0 0 0 0 0 0 0 0 0 0 127 0"/>
<feOffset/>
<feGaussianBlur stdDeviation="50"/>
<feColorMatrix type="matrix" values="0 0 0 0 0 0 0 0 0 0 0 0 0 0 0 0 0 0 0.2 0"/>
<feBlend mode="normal" in2="BackgroundImageFix" result="effect1_dropShadow"/>
<feBlend mode="normal" in="SourceGraphic" in2="effect1_dropShadow" result="shape"/>
</filter>
</defs>
</svg>
